<?xml version="1.0" encoding="utf-8"?>
<!-- Generator: Adobe Illustrator 17.1.0, SVG Export Plug-In . SVG Version: 6.00 Build 0)  -->
<!DOCTYPE svg PUBLIC "-//W3C//DTD SVG 1.1//EN" "http://www.w3.org/Graphics/SVG/1.1/DTD/svg11.dtd" [
	<!ENTITY ns_extend "http://ns.adobe.com/Extensibility/1.0/">
	<!ENTITY ns_ai "http://ns.adobe.com/AdobeIllustrator/10.0/">
	<!ENTITY ns_graphs "http://ns.adobe.com/Graphs/1.0/">
	<!ENTITY ns_vars "http://ns.adobe.com/Variables/1.0/">
	<!ENTITY ns_imrep "http://ns.adobe.com/ImageReplacement/1.0/">
	<!ENTITY ns_sfw "http://ns.adobe.com/SaveForWeb/1.0/">
	<!ENTITY ns_custom "http://ns.adobe.com/GenericCustomNamespace/1.0/">
	<!ENTITY ns_adobe_xpath "http://ns.adobe.com/XPath/1.0/">
]>
<svg version="1.1" id="Layer_1" xmlns:x="&ns_extend;" xmlns:i="&ns_ai;" xmlns:graph="&ns_graphs;"
	 xmlns="http://www.w3.org/2000/svg" xmlns:xlink="http://www.w3.org/1999/xlink" x="0px" y="0px" viewBox="0 0 904 903"
	 enable-background="new 0 0 904 903" xml:space="preserve">
<metadata>
	<sfw  xmlns="&ns_sfw;">
		<slices></slices>
		<sliceSourceBounds  height="903" width="904" bottomLeftOrigin="true" x="-252.5" y="-651"></sliceSourceBounds>
	</sfw>
</metadata>
<path fill-rule="evenodd" clip-rule="evenodd" fill="#F1A61E" d="M462.5,92C661,92,822,253,822,451.5S661,811,462.5,811
	S103,650,103,451.5S264,92,462.5,92z"/>
<path fill="#F1A61E" d="M13.1,892l-2.1-2.1l3.5-3.5l2.1,2.1L13.1,892z"/>
<path fill="#F1A61E" d="M18.8,886.4l-2.1-2.1l7-7l2.1,2.1L18.8,886.4z M27.9,877.2l-2.1-2.1l7-7l2.1,2.1L27.9,877.2z M37.1,868.1
	l-2.1-2.1l7-7l2.1,2.1L37.1,868.1z M46.2,858.9l-2.1-2.1l7-7l2.1,2.1L46.2,858.9z M55.4,849.8l-2.1-2.1l7-7l2.1,2.1L55.4,849.8z
	 M64.5,840.6l-2.1-2.1l7-7l2.1,2.1L64.5,840.6z M73.7,831.5l-2.1-2.1l7-7l2.1,2.1L73.7,831.5z M82.9,822.3l-2.1-2.1l7-7l2.1,2.1
	L82.9,822.3z M92,813.2l-2.1-2.1l7-7l2.1,2.1L92,813.2z M101.2,804.1l-2.1-2.1l7-7l2.1,2.1L101.2,804.1z M110.3,794.9l-2.1-2.1l7-7
	l2.1,2.1L110.3,794.9z M119.5,785.8l-2.1-2.1l7-7l2.1,2.1L119.5,785.8z M128.6,776.6l-2.1-2.1l7-7l2.1,2.1L128.6,776.6z
	 M137.8,767.5l-2.1-2.1l7-7l2.1,2.1L137.8,767.5z M146.9,758.3l-2.1-2.1l7-7l2.1,2.1L146.9,758.3z M156.1,749.2l-2.1-2.1l7-7
	l2.1,2.1L156.1,749.2z M165.2,740l-2.1-2.1l7-7l2.1,2.1L165.2,740z M174.4,730.9l-2.1-2.1l7-7l2.1,2.1L174.4,730.9z M183.6,721.8
	l-2.1-2.1l7-7l2.1,2.1L183.6,721.8z M192.7,712.6l-2.1-2.1l7-7l2.1,2.1L192.7,712.6z M201.9,703.5l-2.1-2.1l7-7l2.1,2.1L201.9,703.5
	z M714.5,191.4l-2.1-2.1l7-7l2.1,2.1L714.5,191.4z M723.7,182.3l-2.1-2.1l7-7l2.1,2.1L723.7,182.3z M732.8,173.1l-2.1-2.1l7-7
	l2.1,2.1L732.8,173.1z M742,164l-2.1-2.1l7-7l2.1,2.1L742,164z M751.1,154.8l-2.1-2.1l7-7l2.1,2.1L751.1,154.8z M760.3,145.7
	l-2.1-2.1l7-7l2.1,2.1L760.3,145.7z M769.5,136.5l-2.1-2.1l7-7l2.1,2.1L769.5,136.5z M778.6,127.4l-2.1-2.1l7-7l2.1,2.1L778.6,127.4
	z M787.8,118.2l-2.1-2.1l7-7l2.1,2.1L787.8,118.2z M796.9,109.1l-2.1-2.1l7-7l2.1,2.1L796.9,109.1z M806.1,100l-2.1-2.1l7-7l2.1,2.1
	L806.1,100z M815.2,90.8l-2.1-2.1l7-7l2.1,2.1L815.2,90.8z M824.4,81.7l-2.1-2.1l7-7l2.1,2.1L824.4,81.7z M833.5,72.5l-2.1-2.1l7-7
	l2.1,2.1L833.5,72.5z M842.7,63.4l-2.1-2.1l7-7l2.1,2.1L842.7,63.4z M851.8,54.2l-2.1-2.1l7-7l2.1,2.1L851.8,54.2z M861,45.1
	l-2.1-2.1l7-7l2.1,2.1L861,45.1z M870.2,35.9l-2.1-2.1l7-7l2.1,2.1L870.2,35.9z M879.3,26.8l-2.1-2.1l7-7l2.1,2.1L879.3,26.8z"/>
<path fill="#F1A61E" d="M888.5,17.7l-2.1-2.1l3.5-3.5l2.1,2.1L888.5,17.7z"/>
<path fill-rule="evenodd" clip-rule="evenodd" fill="#F1A61E" d="M897,0c3.9,0,7,3.1,7,7c0,3.9-3.1,7-7,7c-3.9,0-7-3.1-7-7
	C890,3.1,893.1,0,897,0z"/>
<path fill-rule="evenodd" clip-rule="evenodd" fill="#F1A61E" d="M7,889c3.9,0,7,3.1,7,7c0,3.9-3.1,7-7,7c-3.9,0-7-3.1-7-7
	C0,892.1,3.1,889,7,889z"/>
</svg>
